<?xml version="1.0" encoding="UTF-8" standalone="no"?>
<!DOCTYPE svg PUBLIC "-//W3C//DTD SVG 1.1//EN"
 "http://www.w3.org/Graphics/SVG/1.1/DTD/svg11.dtd">
<!-- Generated by graphviz version 2.43.0 (0)
 -->
<!-- Title: /workspaces/max32664&#45;hub/examples/basic Pages: 1 -->
<svg width="182pt" height="159pt"
 viewBox="0.00 0.00 182.00 159.00" xmlns="http://www.w3.org/2000/svg" xmlns:xlink="http://www.w3.org/1999/xlink">
<g id="graph0" class="graph" transform="scale(1 1) rotate(0) translate(4 155)">
<title>/workspaces/max32664&#45;hub/examples/basic</title>
<polygon fill="white" stroke="transparent" points="-4,4 -4,-155 178,-155 178,4 -4,4"/>
<g id="clust1" class="cluster">
<title>clusterdir_ae1c59426e2ac407d2dd6cd626af8226</title>
<g id="a_clust1"><a xlink:href="dir_ae1c59426e2ac407d2dd6cd626af8226.html" target="_top" xlink:title="examples">
<polygon fill="#daedff" stroke="#7f7f7f" stroke-dasharray="5,2" points="8,-56 8,-143 166,-143 166,-56 8,-56"/>
<text text-anchor="middle" x="87" y="-131" font-family="Helvetica,sans-Serif" font-size="10.00">examples</text>
</a>
</g>
</g>
<g id="clust2" class="cluster">
<title>clusterdir_cdc4c04425634b1fb86bdd766775209f</title>
<g id="a_clust2"><a xlink:href="dir_cdc4c04425634b1fb86bdd766775209f.html" target="_top">
<polygon fill="#daedff" stroke="#404040" stroke-width="2" points="16,-64 16,-116 158,-116 158,-64 16,-64"/>
</a>
</g>
</g>
<!-- dir_cdc4c04425634b1fb86bdd766775209f -->
<g id="node1" class="node">
<title>dir_cdc4c04425634b1fb86bdd766775209f</title>
<text text-anchor="middle" x="123" y="-87.5" font-family="Helvetica,sans-Serif" font-size="10.00">basic</text>
</g>
<!-- dir_fc9191ee2f4222dfae5a51af809a4c3a -->
<g id="node2" class="node">
<title>dir_fc9191ee2f4222dfae5a51af809a4c3a</title>
<g id="a_node2"><a xlink:href="dir_fc9191ee2f4222dfae5a51af809a4c3a.html" target="_top" xlink:title="main">
<polygon fill="#4ea9ff" stroke="#404040" points="78,-108 24,-108 24,-72 78,-72 78,-108"/>
<text text-anchor="middle" x="51" y="-87.5" font-family="Helvetica,sans-Serif" font-size="10.00">main</text>
</a>
</g>
</g>
<!-- dir_35d03c46eee16f6359e2b142a8b60bdb -->
<g id="node3" class="node">
<title>dir_35d03c46eee16f6359e2b142a8b60bdb</title>
<g id="a_node3"><a xlink:href="dir_35d03c46eee16f6359e2b142a8b60bdb.html" target="_top" xlink:title="include">
<polygon fill="none" stroke="#7f7f7f" points="78,-36 24,-36 24,0 78,0 78,-36"/>
<text text-anchor="middle" x="51" y="-15.5" font-family="Helvetica,sans-Serif" font-size="10.00">include</text>
</a>
</g>
</g>
<!-- dir_fc9191ee2f4222dfae5a51af809a4c3a&#45;&gt;dir_35d03c46eee16f6359e2b142a8b60bdb -->
<g id="edge1" class="edge">
<title>dir_fc9191ee2f4222dfae5a51af809a4c3a&#45;&gt;dir_35d03c46eee16f6359e2b142a8b60bdb</title>
<path fill="none" stroke="black" d="M51,-71.7C51,-63.98 51,-54.71 51,-46.11"/>
<polygon fill="black" stroke="black" points="54.5,-46.1 51,-36.1 47.5,-46.1 54.5,-46.1"/>
<g id="a_edge1&#45;headlabel"><a xlink:href="dir_000003_000002.html" target="_top" xlink:title="1">
<text text-anchor="middle" x="57.34" y="-47.2" font-family="Helvetica,sans-Serif" font-size="10.00">1</text>
</a>
</g>
</g>
</g>
</svg>
