<?xml version="1.0" encoding="UTF-8" standalone="no"?>
<!DOCTYPE svg PUBLIC "-//W3C//DTD SVG 1.1//EN"
 "http://www.w3.org/Graphics/SVG/1.1/DTD/svg11.dtd">
<!-- Generated by graphviz version 2.43.0 (0)
 -->
<!-- Title: /workspaces/max32664&#45;hub/examples Pages: 1 -->
<svg width="194pt" height="175pt"
 viewBox="0.00 0.00 194.00 175.00" xmlns="http://www.w3.org/2000/svg" xmlns:xlink="http://www.w3.org/1999/xlink">
<g id="graph0" class="graph" transform="scale(1 1) rotate(0) translate(4 171)">
<title>/workspaces/max32664&#45;hub/examples</title>
<polygon fill="white" stroke="transparent" points="-4,4 -4,-171 190,-171 190,4 -4,4"/>
<g id="clust1" class="cluster">
<title>clusterdir_ab5b888c468f49802a9478a4888384b8</title>
<g id="a_clust1"><a xlink:href="dir_ab5b888c468f49802a9478a4888384b8.html" target="_top" xlink:title="max32664&#45;hub">
<polygon fill="#daedff" stroke="#404040" stroke-dasharray="5,2" points="8,-8 8,-159 178,-159 178,-8 8,-8"/>
<text text-anchor="middle" x="93" y="-147" font-family="Helvetica,sans-Serif" font-size="10.00">max32664&#45;hub</text>
</a>
</g>
</g>
<g id="clust2" class="cluster">
<title>clusterdir_ae1c59426e2ac407d2dd6cd626af8226</title>
<g id="a_clust2"><a xlink:href="dir_ae1c59426e2ac407d2dd6cd626af8226.html" target="_top">
<polygon fill="#daedff" stroke="#404040" stroke-width="2" points="16,-80 16,-132 170,-132 170,-80 16,-80"/>
</a>
</g>
</g>
<!-- dir_35d03c46eee16f6359e2b142a8b60bdb -->
<g id="node1" class="node">
<title>dir_35d03c46eee16f6359e2b142a8b60bdb</title>
<g id="a_node1"><a xlink:href="dir_35d03c46eee16f6359e2b142a8b60bdb.html" target="_top" xlink:title="include">
<polygon fill="#4ea9ff" stroke="#404040" points="78,-52 24,-52 24,-16 78,-16 78,-52"/>
<text text-anchor="middle" x="51" y="-31.5" font-family="Helvetica,sans-Serif" font-size="10.00">include</text>
</a>
</g>
</g>
<!-- dir_ae1c59426e2ac407d2dd6cd626af8226 -->
<g id="node2" class="node">
<title>dir_ae1c59426e2ac407d2dd6cd626af8226</title>
<text text-anchor="middle" x="129" y="-103.5" font-family="Helvetica,sans-Serif" font-size="10.00">examples</text>
</g>
<!-- dir_cdc4c04425634b1fb86bdd766775209f -->
<g id="node3" class="node">
<title>dir_cdc4c04425634b1fb86bdd766775209f</title>
<g id="a_node3"><a xlink:href="dir_cdc4c04425634b1fb86bdd766775209f.html" target="_top" xlink:title="basic">
<polygon fill="#4ea9ff" stroke="#404040" points="78,-124 24,-124 24,-88 78,-88 78,-124"/>
<text text-anchor="middle" x="51" y="-103.5" font-family="Helvetica,sans-Serif" font-size="10.00">basic</text>
</a>
</g>
</g>
<!-- dir_cdc4c04425634b1fb86bdd766775209f&#45;&gt;dir_35d03c46eee16f6359e2b142a8b60bdb -->
<g id="edge1" class="edge">
<title>dir_cdc4c04425634b1fb86bdd766775209f&#45;&gt;dir_35d03c46eee16f6359e2b142a8b60bdb</title>
<path fill="none" stroke="black" d="M51,-87.7C51,-79.98 51,-70.71 51,-62.11"/>
<polygon fill="black" stroke="black" points="54.5,-62.1 51,-52.1 47.5,-62.1 54.5,-62.1"/>
<g id="a_edge1&#45;headlabel"><a xlink:href="dir_000000_000002.html" target="_top" xlink:title="1">
<text text-anchor="middle" x="57.34" y="-63.2" font-family="Helvetica,sans-Serif" font-size="10.00">1</text>
</a>
</g>
</g>
</g>
</svg>
