<?xml version="1.0" encoding="UTF-8" standalone="no"?>
<!DOCTYPE svg PUBLIC "-//W3C//DTD SVG 1.1//EN"
 "http://www.w3.org/Graphics/SVG/1.1/DTD/svg11.dtd">
<!-- Generated by graphviz version 2.43.0 (0)
 -->
<!-- Title: /workspaces/max32664&#45;hub Pages: 1 -->
<svg width="214pt" height="148pt"
 viewBox="0.00 0.00 214.00 148.00" xmlns="http://www.w3.org/2000/svg" xmlns:xlink="http://www.w3.org/1999/xlink">
<g id="graph0" class="graph" transform="scale(1 1) rotate(0) translate(4 144)">
<title>/workspaces/max32664&#45;hub</title>
<polygon fill="white" stroke="transparent" points="-4,4 -4,-144 210,-144 210,4 -4,4"/>
<g id="clust1" class="cluster">
<title>clusterdir_ab5b888c468f49802a9478a4888384b8</title>
<g id="a_clust1"><a xlink:href="dir_ab5b888c468f49802a9478a4888384b8.html" target="_top">
<polygon fill="#daedff" stroke="#404040" stroke-width="2" points="8,-8 8,-132 198,-132 198,-8 8,-8"/>
</a>
</g>
</g>
<!-- dir_ab5b888c468f49802a9478a4888384b8 -->
<g id="node1" class="node">
<title>dir_ab5b888c468f49802a9478a4888384b8</title>
<text text-anchor="middle" x="145" y="-103.5" font-family="Helvetica,sans-Serif" font-size="10.00">max32664&#45;hub</text>
</g>
<!-- dir_35d03c46eee16f6359e2b142a8b60bdb -->
<g id="node3" class="node">
<title>dir_35d03c46eee16f6359e2b142a8b60bdb</title>
<g id="a_node3"><a xlink:href="dir_35d03c46eee16f6359e2b142a8b60bdb.html" target="_top" xlink:title="include">
<polygon fill="#4ea9ff" stroke="#404040" points="124,-52 70,-52 70,-16 124,-16 124,-52"/>
<text text-anchor="middle" x="97" y="-31.5" font-family="Helvetica,sans-Serif" font-size="10.00">include</text>
</a>
</g>
</g>
<!-- dir_ab5b888c468f49802a9478a4888384b8&#45;&gt;dir_35d03c46eee16f6359e2b142a8b60bdb -->
<g id="edge1" class="edge">
<title>dir_ab5b888c468f49802a9478a4888384b8&#45;&gt;dir_35d03c46eee16f6359e2b142a8b60bdb</title>
<path fill="none" stroke="black" d="M133.13,-87.7C127.5,-79.47 120.65,-69.48 114.43,-60.42"/>
<polygon fill="black" stroke="black" points="117.27,-58.37 108.73,-52.1 111.5,-62.33 117.27,-58.37"/>
<g id="a_edge1&#45;headlabel"><a xlink:href="dir_000004_000002.html" target="_top" xlink:title="2">
<text text-anchor="middle" x="121.65" y="-57.23" font-family="Helvetica,sans-Serif" font-size="10.00">2</text>
</a>
</g>
</g>
<!-- dir_ae1c59426e2ac407d2dd6cd626af8226 -->
<g id="node2" class="node">
<title>dir_ae1c59426e2ac407d2dd6cd626af8226</title>
<g id="a_node2"><a xlink:href="dir_ae1c59426e2ac407d2dd6cd626af8226.html" target="_top" xlink:title="examples">
<polygon fill="#4ea9ff" stroke="#404040" points="81.5,-124 16.5,-124 16.5,-88 81.5,-88 81.5,-124"/>
<text text-anchor="middle" x="49" y="-103.5" font-family="Helvetica,sans-Serif" font-size="10.00">examples</text>
</a>
</g>
</g>
<!-- dir_ae1c59426e2ac407d2dd6cd626af8226&#45;&gt;dir_35d03c46eee16f6359e2b142a8b60bdb -->
<g id="edge2" class="edge">
<title>dir_ae1c59426e2ac407d2dd6cd626af8226&#45;&gt;dir_35d03c46eee16f6359e2b142a8b60bdb</title>
<path fill="none" stroke="black" d="M60.87,-87.7C66.5,-79.47 73.35,-69.48 79.57,-60.42"/>
<polygon fill="black" stroke="black" points="82.5,-62.33 85.27,-52.1 76.73,-58.37 82.5,-62.33"/>
<g id="a_edge2&#45;headlabel"><a xlink:href="dir_000001_000002.html" target="_top" xlink:title="1">
<text text-anchor="middle" x="82.81" y="-64.4" font-family="Helvetica,sans-Serif" font-size="10.00">1</text>
</a>
</g>
</g>
</g>
</svg>
