<?xml version="1.0" encoding="UTF-8" standalone="no"?>
<!DOCTYPE svg PUBLIC "-//W3C//DTD SVG 1.1//EN"
 "http://www.w3.org/Graphics/SVG/1.1/DTD/svg11.dtd">
<!-- Generated by graphviz version 2.43.0 (0)
 -->
<!-- Title: /workspaces/max32664&#45;hub/examples/basic/main/example.cpp Pages: 1 -->
<svg width="519pt" height="162pt"
 viewBox="0.00 0.00 518.50 162.00" xmlns="http://www.w3.org/2000/svg" xmlns:xlink="http://www.w3.org/1999/xlink">
<g id="graph0" class="graph" transform="scale(1 1) rotate(0) translate(4 158)">
<title>/workspaces/max32664&#45;hub/examples/basic/main/example.cpp</title>
<polygon fill="white" stroke="transparent" points="-4,4 -4,-158 514.5,-158 514.5,4 -4,4"/>
<!-- Node1 -->
<g id="node1" class="node">
<title>Node1</title>
<g id="a_node1"><a xlink:title=" ">
<polygon fill="#bfbfbf" stroke="black" points="157.5,-112.5 157.5,-153.5 303.5,-153.5 303.5,-112.5 157.5,-112.5"/>
<text text-anchor="start" x="165.5" y="-141.5" font-family="Helvetica,sans-Serif" font-size="10.00">/workspaces/max32664</text>
<text text-anchor="start" x="165.5" y="-130.5" font-family="Helvetica,sans-Serif" font-size="10.00">&#45;hub/examples/basic/main</text>
<text text-anchor="middle" x="230.5" y="-119.5" font-family="Helvetica,sans-Serif" font-size="10.00">/example.cpp</text>
</a>
</g>
</g>
<!-- Node2 -->
<g id="node2" class="node">
<title>Node2</title>
<g id="a_node2"><a xlink:href="max32664_8hpp.html" target="_top" xlink:title=" ">
<polygon fill="white" stroke="black" points="0,-56.5 0,-75.5 89,-75.5 89,-56.5 0,-56.5"/>
<text text-anchor="middle" x="44.5" y="-63.5" font-family="Helvetica,sans-Serif" font-size="10.00">max32664.hpp</text>
</a>
</g>
</g>
<!-- Node1&#45;&gt;Node2 -->
<g id="edge1" class="edge">
<title>Node1&#45;&gt;Node2</title>
<path fill="none" stroke="midnightblue" d="M174.69,-112.5C143.57,-101.62 105.8,-88.42 78.97,-79.05"/>
<polygon fill="midnightblue" stroke="midnightblue" points="79.85,-75.65 69.26,-75.65 77.54,-82.26 79.85,-75.65"/>
</g>
<!-- Node4 -->
<g id="node4" class="node">
<title>Node4</title>
<g id="a_node4"><a xlink:title=" ">
<polygon fill="white" stroke="#bfbfbf" points="107,-56.5 107,-75.5 170,-75.5 170,-56.5 107,-56.5"/>
<text text-anchor="middle" x="138.5" y="-63.5" font-family="Helvetica,sans-Serif" font-size="10.00">esp_log.h</text>
</a>
</g>
</g>
<!-- Node1&#45;&gt;Node4 -->
<g id="edge3" class="edge">
<title>Node1&#45;&gt;Node4</title>
<path fill="none" stroke="midnightblue" d="M202.9,-112.5C188.79,-102.53 171.92,-90.61 158.99,-81.48"/>
<polygon fill="midnightblue" stroke="midnightblue" points="160.93,-78.56 150.75,-75.65 156.89,-84.28 160.93,-78.56"/>
</g>
<!-- Node5 -->
<g id="node5" class="node">
<title>Node5</title>
<g id="a_node5"><a xlink:title=" ">
<polygon fill="white" stroke="#bfbfbf" points="188.5,-56.5 188.5,-75.5 272.5,-75.5 272.5,-56.5 188.5,-56.5"/>
<text text-anchor="middle" x="230.5" y="-63.5" font-family="Helvetica,sans-Serif" font-size="10.00">esp_system.h</text>
</a>
</g>
</g>
<!-- Node1&#45;&gt;Node5 -->
<g id="edge4" class="edge">
<title>Node1&#45;&gt;Node5</title>
<path fill="none" stroke="midnightblue" d="M230.5,-112.5C230.5,-104.07 230.5,-94.24 230.5,-85.87"/>
<polygon fill="midnightblue" stroke="midnightblue" points="234,-85.65 230.5,-75.65 227,-85.65 234,-85.65"/>
</g>
<!-- Node6 -->
<g id="node6" class="node">
<title>Node6</title>
<g id="a_node6"><a xlink:title=" ">
<polygon fill="white" stroke="#bfbfbf" points="291,-56.5 291,-75.5 404,-75.5 404,-56.5 291,-56.5"/>
<text text-anchor="middle" x="347.5" y="-63.5" font-family="Helvetica,sans-Serif" font-size="10.00">freertos/FreeRTOS.h</text>
</a>
</g>
</g>
<!-- Node1&#45;&gt;Node6 -->
<g id="edge5" class="edge">
<title>Node1&#45;&gt;Node6</title>
<path fill="none" stroke="midnightblue" d="M265.6,-112.5C284.06,-102.24 306.23,-89.93 322.85,-80.69"/>
<polygon fill="midnightblue" stroke="midnightblue" points="324.88,-83.57 331.93,-75.65 321.48,-77.45 324.88,-83.57"/>
</g>
<!-- Node7 -->
<g id="node7" class="node">
<title>Node7</title>
<g id="a_node7"><a xlink:title=" ">
<polygon fill="white" stroke="#bfbfbf" points="422.5,-56.5 422.5,-75.5 510.5,-75.5 510.5,-56.5 422.5,-56.5"/>
<text text-anchor="middle" x="466.5" y="-63.5" font-family="Helvetica,sans-Serif" font-size="10.00">freertos/task.h</text>
</a>
</g>
</g>
<!-- Node1&#45;&gt;Node7 -->
<g id="edge6" class="edge">
<title>Node1&#45;&gt;Node7</title>
<path fill="none" stroke="midnightblue" d="M301.31,-112.5C341.96,-101.3 391.57,-87.64 425.75,-78.22"/>
<polygon fill="midnightblue" stroke="midnightblue" points="426.68,-81.6 435.39,-75.57 424.82,-74.85 426.68,-81.6"/>
</g>
<!-- Node3 -->
<g id="node3" class="node">
<title>Node3</title>
<g id="a_node3"><a xlink:title=" ">
<polygon fill="white" stroke="#bfbfbf" points="9,-0.5 9,-19.5 80,-19.5 80,-0.5 9,-0.5"/>
<text text-anchor="middle" x="44.5" y="-7.5" font-family="Helvetica,sans-Serif" font-size="10.00">driver/i2c.h</text>
</a>
</g>
</g>
<!-- Node2&#45;&gt;Node3 -->
<g id="edge2" class="edge">
<title>Node2&#45;&gt;Node3</title>
<path fill="none" stroke="midnightblue" d="M44.5,-56.08C44.5,-49.01 44.5,-38.86 44.5,-29.99"/>
<polygon fill="midnightblue" stroke="midnightblue" points="48,-29.75 44.5,-19.75 41,-29.75 48,-29.75"/>
</g>
</g>
</svg>
