<?xml version="1.0" encoding="UTF-8" standalone="no"?>
<!DOCTYPE svg PUBLIC "-//W3C//DTD SVG 1.1//EN"
 "http://www.w3.org/Graphics/SVG/1.1/DTD/svg11.dtd">
<!-- Generated by graphviz version 2.43.0 (0)
 -->
<!-- Title: /workspaces/max32664&#45;hub/max32664.cpp Pages: 1 -->
<svg width="178pt" height="151pt"
 viewBox="0.00 0.00 178.00 151.00" xmlns="http://www.w3.org/2000/svg" xmlns:xlink="http://www.w3.org/1999/xlink">
<g id="graph0" class="graph" transform="scale(1 1) rotate(0) translate(4 147)">
<title>/workspaces/max32664&#45;hub/max32664.cpp</title>
<polygon fill="white" stroke="transparent" points="-4,4 -4,-147 174,-147 174,4 -4,4"/>
<!-- Node1 -->
<g id="node1" class="node">
<title>Node1</title>
<g id="a_node1"><a xlink:title=" ">
<polygon fill="#bfbfbf" stroke="black" points="25.5,-112.5 25.5,-142.5 157.5,-142.5 157.5,-112.5 25.5,-112.5"/>
<text text-anchor="start" x="33.5" y="-130.5" font-family="Helvetica,sans-Serif" font-size="10.00">/workspaces/max32664</text>
<text text-anchor="middle" x="91.5" y="-119.5" font-family="Helvetica,sans-Serif" font-size="10.00">&#45;hub/max32664.cpp</text>
</a>
</g>
</g>
<!-- Node2 -->
<g id="node2" class="node">
<title>Node2</title>
<g id="a_node2"><a xlink:href="max32664_8hpp.html" target="_top" xlink:title=" ">
<polygon fill="white" stroke="black" points="0,-56.5 0,-75.5 89,-75.5 89,-56.5 0,-56.5"/>
<text text-anchor="middle" x="44.5" y="-63.5" font-family="Helvetica,sans-Serif" font-size="10.00">max32664.hpp</text>
</a>
</g>
</g>
<!-- Node1&#45;&gt;Node2 -->
<g id="edge1" class="edge">
<title>Node1&#45;&gt;Node2</title>
<path fill="none" stroke="midnightblue" d="M80.36,-112.4C73.53,-103.75 64.76,-92.64 57.59,-83.58"/>
<polygon fill="midnightblue" stroke="midnightblue" points="60.28,-81.34 51.34,-75.66 54.79,-85.67 60.28,-81.34"/>
</g>
<!-- Node4 -->
<g id="node4" class="node">
<title>Node4</title>
<g id="a_node4"><a xlink:title=" ">
<polygon fill="white" stroke="#bfbfbf" points="107,-56.5 107,-75.5 170,-75.5 170,-56.5 107,-56.5"/>
<text text-anchor="middle" x="138.5" y="-63.5" font-family="Helvetica,sans-Serif" font-size="10.00">esp_log.h</text>
</a>
</g>
</g>
<!-- Node1&#45;&gt;Node4 -->
<g id="edge3" class="edge">
<title>Node1&#45;&gt;Node4</title>
<path fill="none" stroke="midnightblue" d="M102.64,-112.4C109.47,-103.75 118.24,-92.64 125.41,-83.58"/>
<polygon fill="midnightblue" stroke="midnightblue" points="128.21,-85.67 131.66,-75.66 122.72,-81.34 128.21,-85.67"/>
</g>
<!-- Node3 -->
<g id="node3" class="node">
<title>Node3</title>
<g id="a_node3"><a xlink:title=" ">
<polygon fill="white" stroke="#bfbfbf" points="9,-0.5 9,-19.5 80,-19.5 80,-0.5 9,-0.5"/>
<text text-anchor="middle" x="44.5" y="-7.5" font-family="Helvetica,sans-Serif" font-size="10.00">driver/i2c.h</text>
</a>
</g>
</g>
<!-- Node2&#45;&gt;Node3 -->
<g id="edge2" class="edge">
<title>Node2&#45;&gt;Node3</title>
<path fill="none" stroke="midnightblue" d="M44.5,-56.08C44.5,-49.01 44.5,-38.86 44.5,-29.99"/>
<polygon fill="midnightblue" stroke="midnightblue" points="48,-29.75 44.5,-19.75 41,-29.75 48,-29.75"/>
</g>
</g>
</svg>
